<svg width="240" height="79" viewBox="0 0 240 79" fill="none" xmlns="http://www.w3.org/2000/svg">
<g clip-path="url(#clip0)">
<path fill-rule="evenodd" clip-rule="evenodd" d="M25.6757 21.2677C25.7732 21.9172 25.8706 22.566 25.9658 23.2141C24.5037 23.28 23.0417 23.347 21.5797 23.4139C20.038 23.4845 18.4964 23.5551 16.9548 23.6245C17.8509 22.0223 18.7576 20.4236 19.66 18.8325C19.959 18.3053 20.2575 17.7789 20.555 17.2536C21.4796 15.6205 22.4324 13.9922 23.3809 12.3714C23.6539 11.9049 23.9265 11.4391 24.1979 10.9739C24.3396 12.0238 24.4925 13.0728 24.6453 14.1206C24.7908 15.118 24.9361 16.1144 25.0713 17.1096C25.2597 18.4967 25.4679 19.8835 25.6757 21.2677ZM12.3667 31.5057C12.7461 30.9259 13.0873 30.4043 13.3544 29.9758L13.3543 29.9757C17.8071 29.7045 22.2592 29.4414 26.7327 29.1823C26.9458 30.7174 27.1587 32.2483 27.3929 33.7753C27.4359 33.9228 27.4359 34.1854 27.4359 34.5647C27.4359 35.2781 27.4034 35.8603 27.3077 36.299C27.212 36.7411 27.0734 37.1447 26.9033 37.5151C26.7333 37.8857 26.4562 38.3685 26.1155 38.9586C31.1856 38.5634 36.2767 38.1769 41.368 37.7983C40.5793 36.5024 40.0475 34.9272 39.7704 33.0736C39.0459 28.0498 38.3203 23.0066 37.6184 17.9545C37.3212 15.8135 37.0206 13.6687 36.7195 11.5209C36.3076 8.58198 35.8949 5.6373 35.4891 2.68848H21.7479C21.949 3.15642 22.1502 3.61867 22.3511 4.08039C22.4483 4.30366 22.5454 4.52681 22.6424 4.75041C19.6161 9.71648 16.3508 15.4534 13.0719 21.214L12.8006 21.6907C9.39655 27.6713 5.93771 33.6641 2.57482 38.7192C1.86916 39.78 0.955764 41.0595 -0.1729 42.5583C2.68129 42.2915 5.55748 42.0322 8.43299 41.7731C8.24179 41.0913 8.13531 40.5929 8.13531 40.322C8.13531 40.0864 8.15882 39.6649 8.28402 39.0697C8.69586 37.1164 10.84 33.8392 12.3667 31.5057ZM64.035 31.8576C63.2897 32.017 62.5858 32.1174 61.9262 32.1529L61.9263 32.1532C59.4554 32.2845 56.9839 32.42 54.5337 32.5639C54.6675 31.9554 54.8013 31.3469 54.9351 30.7385C55.4404 28.4407 55.9453 26.1445 56.4511 23.8561C57.0899 20.9654 57.7297 18.0833 58.3903 15.2046C58.6242 14.0685 58.8807 13.1753 59.1566 12.5293C59.4341 11.8804 59.7535 11.2777 60.1154 10.7391C56.9083 10.7842 53.7018 10.8359 50.4956 10.8876L49.8262 10.8984L49.8301 10.9235C49.851 11.0585 49.881 11.2513 49.9109 11.4925L49.9128 11.5073C49.9444 11.7632 49.975 12.0113 49.975 12.2501C49.975 12.5531 49.9424 13.0021 49.8686 13.59C49.7943 14.1814 49.6768 14.7937 49.528 15.4237C49.3281 16.3312 49.1261 17.239 48.924 18.1473C48.4796 20.1444 48.0347 22.1439 47.6105 24.1472C47.3452 25.3979 47.076 26.6525 46.8063 27.9092C46.4476 29.5805 46.0881 31.2556 45.7359 32.9304C45.4796 34.079 45.2238 35.0041 44.9473 35.6969C44.6707 36.3903 44.372 37.0329 44.0314 37.6152C50.699 37.1444 57.3668 36.6941 64.035 36.2795C64.1749 35.9017 64.3148 35.5239 64.4546 35.1462C64.9539 33.7977 65.453 32.4498 65.9524 31.1045C65.42 31.4471 64.7808 31.6983 64.035 31.8576ZM67.3794 34.3139C67.0961 34.971 66.8047 35.5815 66.4641 36.1316H66.4642C67.6121 36.0689 68.7598 36.0049 69.9076 35.9408C72.1894 35.8135 74.4711 35.6862 76.7533 35.5693C76.6469 35.1032 76.5823 34.6646 76.5823 34.2462C76.5823 33.488 76.7321 32.4913 77.0086 31.2476C77.3261 29.8307 77.6545 28.4127 77.9827 26.9957C78.2934 25.6538 78.604 24.3129 78.9048 22.975C79.3283 21.0916 79.773 19.2042 80.217 17.3195C80.4196 16.4594 80.6221 15.6 80.8224 14.7416C81.0564 13.6492 81.3051 12.7825 81.5892 12.1663C81.8802 11.5353 82.2069 10.9662 82.5692 10.4438C79.1177 10.4836 75.6876 10.5236 72.2579 10.5677C72.2652 10.6101 72.276 10.6591 72.2882 10.7149C72.3128 10.8272 72.3433 10.9668 72.3642 11.1337C72.3966 11.3828 72.4071 11.628 72.4071 11.8633C72.4071 12.1541 72.3643 12.5812 72.3008 13.1509C72.2377 13.7171 72.1302 14.2993 71.9814 14.909C71.7841 15.7661 71.5849 16.624 71.3856 17.4824C70.9386 19.4072 70.491 21.3345 70.0638 23.2618C69.7664 24.6046 69.4592 25.9522 69.1517 27.3013C68.8202 28.7558 68.4882 30.2121 68.1676 31.666C67.9335 32.7664 67.6704 33.6394 67.3794 34.3139ZM93.8757 22.0682C93.4142 22.0755 92.9541 22.0827 92.4959 22.0899L92.4961 22.0897C93.0924 19.5262 93.6894 16.9626 94.3069 14.3986C95.8408 14.383 97.3964 14.3676 98.9511 14.355C99.8246 14.3477 100.251 14.6499 100.251 15.26C100.251 15.5432 100.186 15.9342 100.037 16.4437L99.9933 16.6265C99.7311 17.7135 99.4698 18.7973 99.2281 19.8846C99.0358 20.778 98.8017 21.3523 98.5252 21.6114C98.2476 21.8707 97.7794 22.0089 97.14 22.0181C96.0498 22.034 94.9591 22.0512 93.8757 22.0682ZM90.025 33.6838C90.025 32.9421 90.1738 31.9572 90.4719 30.7418C90.6602 29.9514 90.8481 29.1612 91.036 28.3716C91.2102 27.6393 91.3843 26.9075 91.5583 26.1766L91.6798 26.1742C94.7076 26.1149 97.7346 26.0555 100.762 26.0173C102.721 25.9925 104.277 25.5741 105.448 24.7408C106.62 23.9079 107.494 22.3487 108.047 20.0402C108.149 19.6081 108.25 19.1759 108.35 18.7437C108.544 17.9082 108.739 17.0724 108.942 16.237C109.166 15.3195 109.283 14.5385 109.283 13.8766C109.283 12.5049 108.858 11.5618 108.047 11.058C107.217 10.5413 106.045 10.2919 104.49 10.2964C98.1413 10.3152 91.8146 10.3562 85.4871 10.4156C85.6794 10.8981 85.7859 11.4288 85.7859 11.9948C85.7859 12.3539 85.7742 12.7503 85.7216 13.1751C85.6683 13.6036 85.5728 14.0999 85.423 14.666C85.2067 15.5886 84.9878 16.5111 84.7689 17.4338C84.3415 19.2347 83.914 21.0361 83.506 22.8392C83.2052 24.1679 82.8945 25.4996 82.5836 26.8323C82.2555 28.2387 81.9271 29.6462 81.6097 31.0527C81.3756 32.1288 81.1213 32.9908 80.8433 33.6397C80.5677 34.2825 80.247 34.8756 79.9058 35.414C83.0228 35.2618 86.1402 35.1393 89.2732 35.0163C89.5876 35.0039 89.9021 34.9916 90.2167 34.9792C90.0891 34.5213 90.025 34.0942 90.025 33.6838ZM124.3 20.2522C122.799 20.2206 121.314 20.1895 119.829 20.1641V20.1638C120.276 18.2538 120.723 16.3401 121.17 14.4228L122.372 14.44C123.634 14.4582 124.899 14.4764 126.176 14.4942C126.986 14.5061 127.391 14.7458 127.391 15.2078C127.391 15.3917 127.369 15.6233 127.285 15.9059C127.05 16.9068 126.816 17.9073 126.603 18.908C126.454 19.4939 126.264 19.8791 126.049 20.0364C125.817 20.2055 125.409 20.2757 124.835 20.2634L124.3 20.2522ZM118.472 25.7861C118.597 25.2622 118.723 24.7384 118.848 24.2148V24.2146C119.105 24.2193 119.363 24.2237 119.623 24.228C120.268 24.2388 120.921 24.2498 121.575 24.267C121.782 25.6022 121.989 26.9419 122.196 28.2811L122.406 29.6376C122.677 31.3847 122.969 33.1403 123.26 34.8961L123.279 35.0117C126.56 35.1352 129.863 35.2749 133.164 35.43C132.93 35.0074 132.716 34.4332 132.567 33.728C132.418 33.0184 132.269 32.2962 132.12 31.563C131.609 29.2104 131.098 26.858 130.586 24.5062C131.78 24.5457 132.719 24.3338 133.442 23.8558C134.146 23.3894 134.698 22.3092 135.081 20.6266C135.399 19.2043 135.735 17.7784 136.072 16.349L136.147 16.0336C136.339 15.2043 136.423 14.5225 136.423 14.0001C136.423 12.7199 136.018 11.8166 135.23 11.2852C134.442 10.7526 133.164 10.4735 131.417 10.4555C125.048 10.39 118.699 10.3403 112.351 10.3086C112.543 10.787 112.649 11.3089 112.649 11.8674C112.649 12.2223 112.638 12.6151 112.585 13.0308C112.532 13.452 112.436 13.9406 112.287 14.4984C112.075 15.3844 111.859 16.2713 111.644 17.1583C111.213 18.9378 110.781 20.7178 110.369 22.4925C110.056 23.8438 109.731 25.1952 109.407 26.5456C109.092 27.8565 108.778 29.1665 108.473 30.4743C108.239 31.5188 107.984 32.3487 107.707 32.9663C107.431 33.5804 107.11 34.146 106.769 34.6489C110.199 34.6847 113.629 34.7244 117.08 34.816C116.953 34.3534 116.888 33.9191 116.888 33.5081C116.888 32.7706 117.038 31.8062 117.314 30.6142C117.7 29.0077 118.086 27.3966 118.472 25.7861ZM136.551 33.8555C136.276 34.4779 135.976 35.0434 135.635 35.55L135.636 35.5499C137.948 35.6707 140.26 35.7988 142.572 35.9269C143.69 35.9888 144.807 36.0507 145.925 36.1119C145.797 35.6258 145.755 35.1749 145.755 34.7522C145.755 33.9829 145.882 32.9779 146.18 31.7462C146.475 30.4316 146.78 29.1145 147.085 27.7959C147.419 26.3508 147.754 24.9041 148.076 23.457C148.474 21.6753 148.888 19.8884 149.302 18.0987C149.534 17.1013 149.765 16.1031 149.994 15.1044C150.228 13.9884 150.485 13.1112 150.761 12.4774C151.038 11.8402 151.357 11.2533 151.719 10.7231C150.708 10.7089 149.696 10.6943 148.685 10.6798C146.267 10.645 143.849 10.6103 141.43 10.5796C141.434 10.6051 141.439 10.633 141.443 10.6632C141.464 10.7882 141.49 10.9519 141.515 11.1497L141.519 11.1772C141.549 11.4211 141.579 11.6566 141.579 11.8832C141.579 12.1705 141.547 12.6029 141.472 13.167C141.398 13.7353 141.28 14.3153 141.132 14.9175C140.911 15.8633 140.689 16.8087 140.466 17.7537C140.043 19.5531 139.62 21.3508 139.214 23.1463C138.885 24.6017 138.549 26.0592 138.213 27.516C137.92 28.7851 137.627 30.0535 137.339 31.3196C137.084 32.3804 136.829 33.2267 136.551 33.8555ZM158.494 15.309C158.268 16.2957 158.04 17.2819 157.813 18.2675C157.395 20.0772 156.977 21.8847 156.576 23.6887C156.251 25.1529 155.919 26.6158 155.587 28.0777C155.29 29.3864 154.993 30.6943 154.702 32.0014C154.339 33.5999 154.148 34.6525 154.148 35.1627C154.148 35.4024 154.169 35.6052 154.211 35.7532L154.213 35.7576C154.256 35.9098 154.341 36.2077 154.51 36.6386C153.223 36.559 151.945 36.4794 150.671 36.4C150.089 36.3638 149.509 36.3276 148.928 36.2915C149.439 35.7369 149.823 35.1909 150.057 34.6408C150.292 34.0984 150.569 33.1538 150.888 31.8062C151.174 30.5069 151.469 29.2068 151.765 27.9053C152.087 26.4868 152.409 25.0668 152.72 23.6446C153.104 21.8887 153.505 20.1275 153.907 18.3636C154.13 17.3843 154.353 16.4042 154.574 15.4236C154.893 13.9367 155.064 12.904 155.064 12.3099C155.064 11.8515 154.957 11.3408 154.744 10.7667C156.926 10.8026 159.107 10.8384 161.292 10.8742C163.246 10.9062 165.202 10.9383 167.164 10.9705C167.491 12.5167 167.822 14.0657 168.153 15.6167C168.599 17.7049 169.046 19.7968 169.486 21.8903C169.963 24.1637 170.456 26.4439 170.95 28.7285C171.251 30.1211 171.552 31.5153 171.851 32.9106C172.137 31.611 172.427 30.3098 172.718 29.0073C173.056 27.4965 173.394 25.9839 173.725 24.47C174.118 22.6771 174.527 20.8793 174.938 19.0776C175.174 18.0431 175.41 17.0073 175.643 15.9704C175.983 14.4268 176.154 13.3467 176.154 12.7326C176.154 12.2501 176.047 11.7157 175.834 11.1217L176.423 11.132C178.08 11.1608 179.74 11.1897 181.416 11.2216C180.926 11.8074 180.563 12.4094 180.329 13.031C180.095 13.6535 179.797 14.6703 179.499 16.0779C178.869 18.9489 178.253 21.8138 177.639 24.6725C177.464 25.4893 177.288 26.3057 177.113 27.1216C176.326 30.7742 175.536 34.4175 174.748 38.0496C172.417 37.8775 170.095 37.7129 167.776 37.5485C166.279 37.4424 164.783 37.3364 163.287 37.2285C162.477 33.5482 161.669 29.8756 160.879 26.2205C160.446 24.2145 160.006 22.2096 159.566 20.2075C159.207 18.5726 158.848 16.9395 158.494 15.309ZM212.22 10.6231C212.434 7.98014 212.647 5.33673 212.86 2.68888L212.859 2.68901H183.93C183.207 4.79024 182.499 6.88574 181.794 8.97249C181.668 9.345 181.542 9.71723 181.416 10.0892C182.332 9.50729 183.077 9.12399 183.632 8.94492C184.185 8.76571 184.974 8.67638 186.017 8.6897C187.007 8.7025 188.003 8.7163 189.003 8.73013C189.768 8.74072 190.534 8.75133 191.3 8.76154L191.058 9.90439C190.287 13.5476 189.519 17.1784 188.766 20.7979C187.936 24.7856 187.104 28.7526 186.273 32.7074C185.954 34.2301 185.621 35.4522 185.25 36.3435C184.876 37.2425 184.484 38.0414 184.036 38.7592C187.9 39.0641 191.763 39.3781 195.639 39.6933C196.273 39.7449 196.908 39.7964 197.542 39.848C197.372 39.1422 197.308 38.4762 197.308 37.858C197.308 36.7377 197.478 35.2824 197.862 33.4843C198.188 31.8965 198.517 30.3051 198.847 28.7107C199.358 26.2377 199.871 23.7576 200.375 21.2725C201.111 17.6539 201.86 14.0194 202.612 10.3722L202.911 8.92124C204.469 8.94224 206.045 8.96517 207.622 8.98812L208.194 8.99644C209.174 9.01057 209.941 9.15076 210.516 9.41957C211.092 9.68891 211.667 10.089 212.22 10.6231ZM106.343 37.4287C157.774 37.4287 202.625 41.562 226.343 47.6888C199.027 43.0774 155.445 40.0929 106.343 40.0929C57.2418 40.0929 13.6592 43.0774 -13.6565 47.6888C10.0617 41.562 54.9124 37.4287 106.343 37.4287Z" fill="#FEFEFE"/>
</g>
<path d="M45.5443 71.228L48.247 70.708C48.247 70.9766 48.2519 71.2134 48.2616 71.4185C48.2714 71.6235 48.2958 71.8481 48.3349 72.0923C48.3788 72.3315 48.435 72.5293 48.5033 72.6855C48.5766 72.8369 48.6767 72.9663 48.8036 73.0737C48.9355 73.1763 49.0893 73.2275 49.265 73.2275C49.7924 73.2275 50.0561 72.8906 50.0561 72.2168C50.0561 71.2939 49.536 70.376 48.496 69.4629L47.6684 68.7598C47.4047 68.54 47.1947 68.3569 47.0385 68.2104C46.8822 68.064 46.6967 67.8662 46.4818 67.6172C46.2719 67.3682 46.1059 67.1289 45.9838 66.8994C45.8666 66.665 45.7641 66.3843 45.6762 66.0571C45.5932 65.73 45.5517 65.3833 45.5517 65.0171C45.5517 63.9478 45.891 63.103 46.5697 62.4829C47.2484 61.8579 48.1493 61.5454 49.2724 61.5454C50.205 61.5454 50.9984 61.8774 51.6527 62.5415C52.307 63.2056 52.6342 64.0063 52.6342 64.9438L52.6269 65.0391C52.6269 65.1025 52.6269 65.1758 52.6269 65.2588L49.873 65.6396C49.873 65.5859 49.8754 65.5029 49.8803 65.3906C49.89 65.2734 49.8949 65.1782 49.8949 65.105C49.8949 64.9292 49.8827 64.7607 49.8583 64.5996C49.8339 64.4385 49.7924 64.2773 49.7338 64.1162C49.6801 63.9551 49.5946 63.8281 49.4774 63.7354C49.3603 63.6377 49.2187 63.5889 49.0526 63.5889C48.7597 63.5889 48.5399 63.7036 48.3935 63.9331C48.247 64.1626 48.1737 64.4336 48.1737 64.7461C48.1737 65.0195 48.2152 65.2759 48.2982 65.5151C48.3861 65.7544 48.5155 65.979 48.6864 66.189C48.8622 66.394 49.0233 66.5649 49.1698 66.7017C49.3163 66.8384 49.5116 67.0068 49.7558 67.207C49.9999 67.4023 50.1732 67.5464 50.2758 67.6392C50.6518 67.9712 50.9691 68.2837 51.2279 68.5767C51.4867 68.8647 51.7309 69.1919 51.9604 69.5581C52.1898 69.9243 52.3607 70.3198 52.473 70.7446C52.5902 71.1694 52.6488 71.6284 52.6488 72.1216C52.6488 73.0444 52.3192 73.8013 51.6601 74.3921C51.0009 74.978 50.2001 75.271 49.2577 75.271C48.6474 75.271 48.1054 75.1587 47.6317 74.9341C47.1581 74.7095 46.7748 74.4043 46.4818 74.0186C46.1938 73.6328 45.9716 73.2056 45.8153 72.7368C45.6591 72.2681 45.5688 71.7651 45.5443 71.228ZM59.7932 75V61.8164H62.4592V75H59.7932ZM70.1016 75V61.8091H72.0205L74.9136 68.7085V61.8091H77.1255V75H75.2798L72.394 67.6831V75H70.1016ZM84.6067 70.5981V66.2329C84.6067 63.1177 85.8812 61.5601 88.43 61.5601C88.9671 61.5601 89.4432 61.6333 89.8582 61.7798C90.2781 61.9214 90.6297 62.1191 90.9129 62.373C91.1961 62.627 91.428 62.9395 91.6087 63.3105C91.7942 63.6816 91.9261 64.0845 92.0042 64.519C92.0872 64.9536 92.1287 65.4321 92.1287 65.9546V67.0898H89.5066V65.874C89.5066 65.6348 89.5018 65.4297 89.492 65.2588C89.4822 65.083 89.4554 64.8853 89.4114 64.6655C89.3724 64.4409 89.3162 64.2603 89.243 64.1235C89.1746 63.9819 89.0696 63.8623 88.928 63.7646C88.7913 63.667 88.6253 63.6182 88.43 63.6182C87.6585 63.6182 87.2728 64.2676 87.2728 65.5664V71.2573C87.2728 72.5513 87.6585 73.1982 88.43 73.1982C88.6595 73.1982 88.8523 73.1323 89.0086 73.0005C89.1648 72.8687 89.2771 72.6831 89.3455 72.4438C89.4139 72.1997 89.4603 71.9629 89.4847 71.7334C89.5091 71.499 89.5213 71.2329 89.5213 70.9351V69.5801H92.1287V70.6934C92.1189 71.1963 92.0774 71.6602 92.0042 72.085C91.931 72.5098 91.8064 72.9224 91.6307 73.3228C91.4549 73.7231 91.2303 74.0625 90.9568 74.3408C90.6883 74.6143 90.3392 74.834 89.9095 75C89.4798 75.1709 88.9866 75.2563 88.43 75.2563C87.8587 75.2563 87.3509 75.1733 86.9065 75.0073C86.4671 74.8462 86.1033 74.6289 85.8152 74.3555C85.532 74.0771 85.2977 73.7378 85.1121 73.3374C84.9266 72.9321 84.7947 72.5073 84.7166 72.063C84.6434 71.6187 84.6067 71.1304 84.6067 70.5981ZM99.4488 75V61.8164H104.949V63.6475H102.115V67.2363H104.122V69.1113H102.115V73.1689H104.949V75H99.4488ZM127.734 65.1929C127.734 65.7739 127.641 66.3501 127.456 66.9214C127.275 67.4878 127.016 68.0347 126.679 68.562C126.342 69.0845 126.018 69.5459 125.705 69.9463C125.393 70.3467 125.019 70.8008 124.585 71.3086C124.15 71.8115 123.833 72.1973 123.633 72.4658H127.734V75H120.717V72.7368L123.925 68.1445C124.111 67.876 124.265 67.6465 124.387 67.4561C124.509 67.2656 124.638 67.0361 124.775 66.7676C124.917 66.499 125.022 66.2329 125.09 65.9692C125.163 65.7056 125.2 65.4468 125.2 65.1929C125.2 65.0415 125.18 64.8877 125.141 64.7314C125.107 64.5752 125.053 64.4238 124.98 64.2773C124.907 64.1309 124.804 64.0137 124.673 63.9258C124.546 63.833 124.399 63.7866 124.233 63.7866C124.096 63.7866 123.972 63.8184 123.86 63.8818C123.752 63.9453 123.664 64.0332 123.596 64.1455C123.528 64.2529 123.469 64.3774 123.42 64.519C123.371 64.6606 123.337 64.812 123.318 64.9731C123.298 65.1294 123.281 65.2881 123.266 65.4492C123.252 65.6104 123.244 65.7642 123.244 65.9106C123.249 66.0522 123.252 66.1841 123.252 66.3062C123.252 66.3892 123.252 66.4478 123.252 66.4819H120.725V65.6543C120.725 65.1709 120.764 64.729 120.842 64.3286C120.92 63.9233 121.047 63.5474 121.223 63.2007C121.399 62.854 121.621 62.561 121.889 62.3218C122.158 62.0825 122.49 61.897 122.885 61.7651C123.281 61.6284 123.73 61.5601 124.233 61.5601C125.346 61.5601 126.208 61.8872 126.819 62.5415C127.429 63.1909 127.734 64.0747 127.734 65.1929ZM139.332 71.1328V65.7056C139.332 64.4409 139.002 63.8086 138.343 63.8086C138.162 63.8086 138.008 63.855 137.881 63.9478C137.754 64.0405 137.657 64.1504 137.588 64.2773C137.525 64.4043 137.474 64.5654 137.435 64.7607C137.4 64.9512 137.378 65.1123 137.369 65.2441C137.364 65.376 137.361 65.5298 137.361 65.7056V71.1328C137.361 71.2842 137.366 71.4331 137.376 71.5796C137.391 71.7212 137.417 71.8848 137.457 72.0703C137.496 72.251 137.549 72.4097 137.618 72.5464C137.686 72.6782 137.781 72.7905 137.903 72.8833C138.03 72.9761 138.177 73.0225 138.343 73.0225C138.548 73.0225 138.721 72.959 138.863 72.832C139.004 72.7002 139.107 72.5269 139.17 72.312C139.234 72.0972 139.275 71.897 139.295 71.7114C139.319 71.5259 139.332 71.333 139.332 71.1328ZM134.791 71.1328V65.7056C134.791 65.1196 134.859 64.5825 134.996 64.0942C135.137 63.6011 135.347 63.1641 135.625 62.7832C135.904 62.4023 136.272 62.1045 136.731 61.8896C137.195 61.6748 137.732 61.5674 138.343 61.5674C138.948 61.5674 139.48 61.6748 139.939 61.8896C140.403 62.1045 140.774 62.4048 141.053 62.7905C141.331 63.1714 141.539 63.606 141.675 64.0942C141.817 64.5825 141.888 65.1196 141.888 65.7056V71.1328C141.888 71.6943 141.814 72.2217 141.668 72.7148C141.521 73.2031 141.304 73.6377 141.016 74.0186C140.733 74.3994 140.362 74.7021 139.903 74.9268C139.444 75.1465 138.924 75.2563 138.343 75.2563C137.752 75.2563 137.225 75.1465 136.761 74.9268C136.302 74.707 135.931 74.4067 135.647 74.0259C135.364 73.645 135.149 73.2104 135.003 72.7222C134.861 72.229 134.791 71.6992 134.791 71.1328ZM150.233 75V65.2075H148.9V63.2666C149.037 63.1836 149.22 63.0884 149.45 62.981C149.679 62.8687 149.857 62.7783 149.984 62.71C150.111 62.6416 150.253 62.5293 150.409 62.373C150.565 62.2168 150.697 62.0288 150.804 61.8091H152.753V75H150.233ZM160.307 70.8179H162.841C162.837 71.0571 162.837 71.2598 162.841 71.4258C162.846 71.5869 162.856 71.7651 162.871 71.9604C162.885 72.1509 162.91 72.3071 162.944 72.4292C162.983 72.5513 163.032 72.6685 163.09 72.7808C163.154 72.8882 163.232 72.9688 163.325 73.0225C163.422 73.0713 163.535 73.0957 163.662 73.0957C163.823 73.0957 163.967 73.064 164.094 73.0005C164.221 72.937 164.323 72.8516 164.401 72.7441C164.48 72.6318 164.546 72.5049 164.599 72.3633C164.658 72.2168 164.699 72.063 164.724 71.9019C164.748 71.7358 164.768 71.5698 164.782 71.4038C164.802 71.2329 164.809 71.0693 164.804 70.9131C164.799 70.7568 164.799 70.6104 164.804 70.4736C164.804 70.3809 164.804 70.3149 164.804 70.2759C164.804 70.1294 164.802 70.0024 164.797 69.895C164.792 69.7827 164.78 69.646 164.76 69.4849C164.741 69.3188 164.709 69.1772 164.665 69.0601C164.621 68.938 164.563 68.8208 164.489 68.7085C164.421 68.5962 164.328 68.5107 164.211 68.4521C164.099 68.3887 163.967 68.3569 163.816 68.3569C163.576 68.3569 163.364 68.4619 163.178 68.6719C162.998 68.877 162.854 69.1138 162.746 69.3823H160.586V61.8091H166.862V64.314H162.959V66.6943C163.427 66.4062 163.855 66.2622 164.24 66.2622C164.709 66.2622 165.124 66.3379 165.485 66.4893C165.852 66.6406 166.145 66.8408 166.364 67.0898C166.589 67.3389 166.772 67.6416 166.914 67.998C167.06 68.3545 167.16 68.7207 167.214 69.0967C167.268 69.4678 167.295 69.873 167.295 70.3125C167.295 70.7471 167.275 71.1523 167.236 71.5283C167.197 71.8994 167.131 72.2803 167.038 72.6709C166.945 73.0566 166.811 73.4009 166.635 73.7036C166.464 74.0015 166.252 74.27 165.998 74.5093C165.749 74.7485 165.437 74.9316 165.061 75.0586C164.685 75.1904 164.257 75.2563 163.779 75.2563C163.237 75.2563 162.761 75.1782 162.351 75.022C161.941 74.8657 161.606 74.6558 161.347 74.3921C161.093 74.1284 160.886 73.8037 160.725 73.418C160.568 73.0273 160.459 72.6245 160.395 72.2095C160.337 71.7944 160.307 71.3306 160.307 70.8179Z" fill="white"/>
<defs>
<clipPath id="clip0">
<rect width="240" height="45" fill="white"/>
</clipPath>
</defs>
</svg>
